<svg viewBox="0 0 64 64" xmlns="http://www.w3.org/2000/svg">
    <defs>
        <linearGradient id="favBlue" x1="0%" y1="0%" x2="100%" y2="100%">
            <stop offset="0%" style="stop-color:#3b82f6;stop-opacity:1" />
            <stop offset="100%" style="stop-color:#2563eb;stop-opacity:1" />
        </linearGradient>
    </defs>

    <!-- Price tag background - clean rectangle -->
    <rect x="0" y="0" width="64" height="64" rx="8" fill="url(#favBlue)"/>

    <!-- Tag hole -->
    <circle cx="12" cy="12" r="4" fill="#1e40af"/>

    <!-- Growth bars -->
    <rect x="12" y="44" width="7" height="10" rx="1" fill="white"/>
    <rect x="22" y="38" width="7" height="16" rx="1" fill="white"/>
    <rect x="32" y="32" width="7" height="22" rx="1" fill="white"/>
    <rect x="42" y="26" width="7" height="28" rx="1" fill="white"/>

    <!-- Upward trending line graph -->
    <path d="M 15.5 41 L 25.5 35 L 35.5 29 L 45.5 20"
          fill="none"
          stroke="white"
          stroke-width="2.5"
          stroke-linecap="round"
          stroke-linejoin="round"/>

    <!-- Arrow at end of line -->
    <path d="M 45.5 20 L 43 23 L 45.5 22 L 48 23 Z" fill="white"/>

    <!-- Data points -->
    <circle cx="15.5" cy="41" r="2" fill="white"/>
    <circle cx="25.5" cy="35" r="2" fill="white"/>
    <circle cx="35.5" cy="29" r="2" fill="white"/>
    <circle cx="45.5" cy="20" r="2" fill="white"/>
</svg>