<svg viewBox="0 0 70 70" xmlns="http://www.w3.org/2000/svg">
    <defs>
        <linearGradient id="blueGradient" x1="0%" y1="0%" x2="100%" y2="100%">
            <stop offset="0%" style="stop-color:#3b82f6;stop-opacity:1" />
            <stop offset="100%" style="stop-color:#2563eb;stop-opacity:1" />
        </linearGradient>
    </defs>

    <!-- Price tag background - clean rectangle with rounded corners -->
    <rect x="0" y="0" width="70" height="70" rx="6" fill="url(#blueGradient)"/>

    <!-- Tag hole -->
    <circle cx="12" cy="12" r="4" fill="#1e40af"/>

    <!-- Growth bars -->
    <rect x="12" y="48" width="8" height="12" rx="1" fill="white"/>
    <rect x="23" y="40" width="8" height="20" rx="1" fill="white"/>
    <rect x="34" y="32" width="8" height="28" rx="1" fill="white"/>
    <rect x="45" y="24" width="8" height="36" rx="1" fill="white"/>

    <!-- Upward trending line graph above the bars -->
    <path d="M 16 45 L 27 37 L 38 29 L 49 18"
          fill="none"
          stroke="white"
          stroke-width="2.5"
          stroke-linecap="round"
          stroke-linejoin="round"/>

    <!-- Arrow at the end of the line -->
    <path d="M 49 18 L 46 21 L 49 20 L 52 21 Z" fill="white"/>

    <!-- Data points on the line -->
    <circle cx="16" cy="45" r="2" fill="white"/>
    <circle cx="27" cy="37" r="2" fill="white"/>
    <circle cx="38" cy="29" r="2" fill="white"/>
    <circle cx="49" cy="18" r="2" fill="white"/>
</svg>